<?xml version="1.0" encoding="UTF-8" standalone="no"?>
<!-- Created with Inkscape (http://www.inkscape.org/) -->

<svg
   xmlns:osb="http://www.openswatchbook.org/uri/2009/osb"
   xmlns:dc="http://purl.org/dc/elements/1.1/"
   xmlns:cc="http://creativecommons.org/ns#"
   xmlns:rdf="http://www.w3.org/1999/02/22-rdf-syntax-ns#"
   xmlns:svg="http://www.w3.org/2000/svg"
   xmlns="http://www.w3.org/2000/svg"
   xmlns:sodipodi="http://sodipodi.sourceforge.net/DTD/sodipodi-0.dtd"
   xmlns:inkscape="http://www.inkscape.org/namespaces/inkscape"
   width="297mm"
   height="297mm"
   viewBox="0 0 297 297"
   version="1.1"
   id="svg8"
   inkscape:version="0.92.3 (2405546, 2018-03-11)"
   sodipodi:docname="xmisao_icon_origin_with_shadow.svg"
   inkscape:export-xdpi="96.041077"
   inkscape:export-ydpi="96.041077">
  <defs
     id="defs2">
    <linearGradient
       id="linearGradient12164"
       osb:paint="solid">
      <stop
         style="stop-color:#000000;stop-opacity:1;"
         offset="0"
         id="stop12162" />
    </linearGradient>
  </defs>
  <sodipodi:namedview
     id="base"
     pagecolor="#ffffff"
     bordercolor="#666666"
     borderopacity="1.0"
     inkscape:pageopacity="0.0"
     inkscape:pageshadow="2"
     inkscape:zoom="0.9050967"
     inkscape:cx="112.20005"
     inkscape:cy="541.12721"
     inkscape:document-units="mm"
     inkscape:current-layer="g12415"
     showgrid="false"
     showguides="false"
     inkscape:window-width="3838"
     inkscape:window-height="2138"
     inkscape:window-x="0"
     inkscape:window-y="20"
     inkscape:window-maximized="1" />
  <metadata
     id="metadata5">
    <rdf:RDF>
      <cc:Work
         rdf:about="">
        <dc:format>image/svg+xml</dc:format>
        <dc:type
           rdf:resource="http://purl.org/dc/dcmitype/StillImage" />
        <dc:title></dc:title>
      </cc:Work>
    </rdf:RDF>
  </metadata>
  <g
     id="g1481"
     inkscape:groupmode="layer"
     inkscape:label="White"
     style="display:none">
    <rect
       y="-0.036126144"
       x="-0.62011719"
       height="299.10318"
       width="299.10318"
       id="rect1477"
       style="fill:#ffffff;fill-opacity:1;stroke-width:0.26458332" />
  </g>
  <g
     style="display:none"
     inkscape:label="Backup"
     inkscape:groupmode="layer"
     id="g1456">
    <rect
       style="fill:#f2f2f2;stroke-width:0.26458332"
       id="rect1452"
       width="299.10318"
       height="299.10318"
       x="-0.62011719"
       y="-0.036126144" />
    <path
       sodipodi:nodetypes="sccsssssscssscssssscscsscccccsssscscscccscccssccssccsscccsssscsscssss"
       inkscape:connector-curvature="0"
       id="path1454"
       d="m 176.27155,312.28971 c -4.8449,-6.32624 -13.60873,-9.57061 -13.71393,-9.84475 -0.12886,-0.33581 6.71895,-3.79362 11.25481,-6.1464 15.29241,-7.93224 20.62224,-11.0294 26.57606,-15.44331 5.70568,-4.22994 17.44946,-15.91112 20.95351,-20.8418 9.65137,-13.58083 16.87831,-39.61679 20.61618,-74.27232 0.81213,-7.52967 1.90053,-19.96678 1.75967,-20.10764 -0.25172,-0.25172 -13.22527,-4.14217 -19.70585,-5.90931 -21.80811,-5.94666 -46.38475,-10.01522 -66.7128,-11.04403 l -5.10268,-0.25825 -2.56629,15.6358 c -8.86671,54.02261 -19.15284,91.96434 -30.57389,112.7757 -7.58237,13.81654 -15.5248,22.50514 -24.87916,27.21655 -11.825875,5.95619 -27.538963,6.73277 -41.331443,2.04269 -11.068746,-3.76386 -23.761631,-12.5485 -34.223262,-23.68563 -16.9863998,-18.08319 -26.9269239,-37.4278 -30.153245,-58.67927 -0.954108,-6.28463 -0.947348,-19.2327 0.01273,-24.37947 3.2948343,-17.6629 14.1287449,-33.16948 32.854817,-47.02509 24.40554,-18.0579 56.205078,-28.09952 98.353793,-31.05803 3.32619,-0.23347 6.08128,-0.45487 6.12242,-0.49201 0.43389,-0.39167 7.79613,-61.674884 10.24478,-85.277543 L 137.09692,25.479228 121.2122,25.213886 C 112.4756,25.067949 80.536964,24.834441 50.237448,24.694979 L -4.8525816,24.441413 V 11.258684 -1.9240456 H 81.137 167.12658 V 11.047736 c 0,12.471314 -0.0585,13.532213 -1.51539,27.497766 -2.72098,26.082281 -5.51387,50.621636 -8.13319,71.461258 -0.722,5.74431 -1.31273,10.52894 -1.31273,10.63251 0,0.10357 1.99855,0.30206 4.44122,0.4411 27.08815,1.54184 52.22456,5.85086 78.14658,13.3963 3.53408,1.02871 6.51064,1.7863 6.61458,1.68354 0.10395,-0.10276 0.18395,-30.70349 0.1778,-68.001615 l -0.21791,-70.0885465 14.90287,0.3100586 14.59279,-0.1033529 -0.23561,69.8311018 c -0.12959,38.407104 -0.2256,73.271684 -0.33972,74.950454 l -0.20746,3.05229 5.03492,1.99844 c 15.23066,6.04535 35.07012,15.8472 49.24827,24.3315 4.92606,2.94779 13.42797,8.24593 13.42797,8.36791 0,0.0523 -3.02567,5.62695 -6.7237,12.38812 l -6.72372,12.29304 -6.41096,-3.86554 c -9.5926,-5.78394 -17.86131,-10.3167 -27.95561,-15.32478 -12.33763,-6.12105 -21.48403,-10.1785 -21.78153,-9.66251 -0.13031,0.22599 -0.35319,2.02675 -0.4953,4.00167 -1.08323,15.05209 -4.03715,35.624 -7.07831,49.29561 -5.19251,23.34291 -11.58375,37.19561 -24.79646,53.74514 -4.26336,5.34006 -11.72032,12.75924 -16.72351,16.63875 -8.95326,6.94245 -24.90477,16.91926 -35.71416,22.33726 l -2.26786,1.13673 z M 74.220331,279.25053 c 4.938511,-1.02987 9.740148,-4.42349 13.672783,-9.66343 9.743196,-12.98206 20.024486,-45.11228 28.341546,-88.57067 2.72341,-14.23039 5.68026,-31.73052 5.40735,-32.00343 -0.30562,-0.30561 -13.36678,0.8814 -19.71632,1.79184 -12.236153,1.7545 -25.234384,4.88948 -34.584819,8.34136 -10.350595,3.8211 -22.497193,10.58827 -30.238097,16.84641 -1.55915,1.2605 -4.371482,3.88453 -6.249619,5.83118 -10.523507,10.90738 -14.061638,21.54273 -12.091364,36.3457 2.051236,15.41125 9.787983,30.42189 23.389982,45.38063 10.562447,11.61601 22.837045,17.62552 32.068558,15.70041 z"
       style="fill:#d6d6d6;fill-opacity:1;stroke:#ffffff;stroke-width:0.26499999;stroke-linecap:square;stroke-miterlimit:4;stroke-dasharray:none;stroke-dashoffset:10.01574802;stroke-opacity:1;paint-order:normal" />
  </g>
  <g
     style="display:inline"
     inkscape:label="Parts"
     inkscape:groupmode="layer"
     id="g12415">
    <path
       style="fill:#f39800;fill-opacity:1;stroke-width:0.99999994"
       d="M 631.66016,-0.13671875 V 41.755859 c 0,47.135675 -0.22216,51.144542 -5.72852,103.927731 -10.28402,98.5787 -20.83849,191.32592 -30.73828,270.08985 -2.72882,21.71078 -4.96289,39.7941 -4.96289,40.18554 0,0.39145 7.55497,1.14247 16.78711,1.66797 102.38041,5.82743 197.38248,22.11266 295.35547,50.63086 13.35715,3.88804 24.60715,6.75167 25,6.36328 0.39288,-0.38838 0.69512,-116.04438 0.67187,-257.01367 L 927.24414,-0.13671875 Z"
       transform="scale(0.26458333)"
       id="path626"
       inkscape:connector-curvature="0" />
    <path
       style="fill:#6d53c3;fill-opacity:1;stroke-width:0.99999994"
       d="M 1038.6797,-0.13671875 1037.8105,257.41602 c -0.4897,145.1607 -0.8518,276.93238 -1.2832,283.27734 l -0.7832,11.53516 19.0293,7.55273 c 22.5539,8.95208 47.7844,20.1002 73.3516,32.25781 V -0.13671875 Z"
       transform="scale(0.26458333)"
       id="path624"
       inkscape:connector-curvature="0" />
    <path
       style="fill:#ff450b;fill-opacity:1;stroke-width:0.99999994"
       d="M -2.34375,92.451172 V 657.82227 C 18.200024,628.78834 45.798784,601.49026 80.642578,575.70898 172.88399,507.45865 293.07082,469.50599 452.37305,458.32422 c 12.57142,-0.88241 22.98513,-1.719 23.14062,-1.85938 1.6399,-1.48032 29.46596,-233.10169 38.72071,-322.30859 L 518.16211,96.298828 458.125,95.296875 C 425.10478,94.745302 304.3909,93.863038 189.87305,93.335938 Z"
       transform="scale(0.26458333)"
       id="path622"
       inkscape:connector-curvature="0" />
    <path
       style="fill:#e60012;fill-opacity:1;stroke-width:0.99999994"
       d="m 575.23047,560.96484 -9.69922,59.09571 c -33.51197,204.17994 -72.38851,347.58117 -115.55469,426.23825 -20.54678,37.4402 -41.79398,64.9158 -65.20508,84.0332 h 251.9629 c 6.83233,-3.5566 13.98761,-7.2429 20.19531,-10.4629 57.79808,-29.9801 77.94073,-41.6866 100.44336,-58.3691 21.56477,-15.9872 65.95166,-60.1358 79.19531,-78.77148 36.47762,-51.32913 63.79254,-149.73332 77.91992,-280.71485 3.06947,-28.45859 7.18278,-75.46566 6.65039,-75.99805 -0.95138,-0.95138 -49.98498,-15.65503 -74.47851,-22.33398 C 764.2358,581.20608 671.348,565.82982 594.51758,561.94141 Z"
       transform="scale(0.26458333)"
       id="path620"
       inkscape:connector-curvature="0" />
    <path
       style="fill:#00a64a;fill-opacity:1;stroke-width:0.99999994"
       d="m 457.19922,563.01758 c -10.5507,0.13196 -50.97027,3.94222 -71.96875,6.95312 -46.24688,6.63118 -95.37267,18.48087 -130.71289,31.52735 -39.12036,14.44195 -85.03015,40.01711 -114.28711,63.66992 -5.89285,4.76409 -16.52262,14.6836 -23.62109,22.04101 -39.77389,41.22475 -53.145929,81.42091 -45.699224,137.36914 7.752703,58.24725 36.995164,114.98061 88.404294,171.51758 39.92106,43.903 86.31237,66.6159 121.20313,59.3398 18.66524,-3.8924 36.81423,-16.7189 51.67773,-36.5234 36.82468,-49.06604 75.68263,-170.50367 107.11719,-334.75585 10.2932,-53.78415 21.46897,-119.92556 20.4375,-120.95703 -0.14439,-0.14438 -1.04354,-0.20049 -2.55078,-0.18164 z"
       transform="scale(0.26458333)"
       id="path618"
       inkscape:connector-curvature="0" />
    <path
       style="fill:#a8363c;fill-opacity:1;stroke-width:0.99999994"
       d="m 1029.2188,667.4375 c -0.3264,-0.0108 -0.5274,0.0441 -0.5977,0.16602 -0.4925,0.85413 -1.334,7.66073 -1.8711,15.125 -4.0941,56.88978 -15.2598,134.64222 -26.75391,186.31445 -19.62523,88.22517 -43.78094,140.58143 -93.71875,203.13083 -14.52826,18.1974 -38.84711,42.75 -57.35546,58.1582 H 1128.125 V 712.78125 c -5.6051,-2.8607 -11.2894,-5.73588 -17.1797,-8.6582 -43.716,-21.68876 -76.8314,-36.52296 -81.7265,-36.68555 z"
       transform="scale(0.26458333)"
       id="path616"
       inkscape:connector-curvature="0" />
    <path
       style="fill:#a8363c;fill-opacity:1;stroke-width:0.99999994"
       d="M -2.34375,968.09375 V 1130.332 H 145.9082 C 119.79266,1113.7805 93.631615,1092.1131 70.384766,1067.3652 40.359273,1035.401 16.160536,1002.3931 -2.34375,968.09375 Z"
       transform="scale(0.26458333)"
       id="rect586"
       inkscape:connector-curvature="0" />
  </g>
  <g
     id="g830"
     inkscape:groupmode="layer"
     inkscape:label="Shadow"
     style="display:inline">
    <path
       style="opacity:0.3;fill:#000000;fill-opacity:1;stroke:none;stroke-width:0.26499999;stroke-linecap:square;stroke-miterlimit:4;stroke-dasharray:none;stroke-dashoffset:10.01574802;stroke-opacity:1;paint-order:normal"
       d="m 176.27155,338.74821 c -4.8449,-6.32624 -13.60873,-9.57061 -13.71393,-9.84475 -0.12886,-0.33581 6.71895,-3.79362 11.25481,-6.1464 15.29241,-7.93224 20.62224,-11.0294 26.57606,-15.44331 5.70568,-4.22994 17.44946,-15.91112 20.95351,-20.8418 9.65137,-13.58083 16.87831,-39.61679 20.61618,-74.27232 0.81213,-7.52967 1.90053,-19.96678 1.75967,-20.10764 -0.25172,-0.25172 -13.22527,-4.14217 -19.70585,-5.90931 -21.80811,-5.94666 -46.38475,-10.01522 -66.7128,-11.04403 l -5.10268,-0.25825 -2.56629,15.6358 c -8.86671,54.02261 -19.15284,91.96434 -30.57389,112.7757 -7.58237,13.81654 -15.5248,22.50514 -24.87916,27.21655 -11.825875,5.95619 -27.538963,6.73277 -41.331443,2.04269 -11.068746,-3.76386 -23.761631,-12.5485 -34.223262,-23.68563 -16.9863998,-18.08319 -26.9269239,-37.4278 -30.153245,-58.67927 -0.954108,-6.28463 -0.947348,-19.2327 0.01273,-24.37947 3.2948343,-17.6629 14.1287449,-33.16948 32.854817,-47.02509 24.40554,-18.0579 56.205078,-28.09952 98.353793,-31.05803 3.32619,-0.23347 6.08128,-0.45487 6.12242,-0.49201 0.43389,-0.39167 7.79613,-61.675034 10.24478,-85.277693 L 137.09692,51.937578 121.2122,51.672236 C 112.4756,51.526299 80.536964,51.292791 50.237448,51.153329 L -4.8525816,50.899763 V 37.717034 24.534297 H 81.137 167.12658 v 12.971789 c 0,12.471314 -0.0585,13.532213 -1.51539,27.497766 -2.72098,26.082281 -5.51387,50.621718 -8.13319,71.461408 -0.722,5.74431 -1.31273,10.52894 -1.31273,10.63251 0,0.10357 1.99855,0.30206 4.44122,0.4411 27.08815,1.54184 52.22456,5.85086 78.14658,13.3963 3.53408,1.02871 6.51064,1.7863 6.61458,1.68354 0.10395,-0.10276 0.18395,-30.70349 0.1778,-68.001765 l -0.21791,-70.088554 14.90287,0.310059 14.59279,-0.103353 -0.23561,69.831109 c -0.12959,38.407254 -0.2256,73.271834 -0.33972,74.950604 l -0.20746,3.05229 5.03492,1.99844 c 15.23066,6.04535 35.07012,15.8472 49.24827,24.3315 4.92606,2.94779 13.42797,8.24593 13.42797,8.36791 0,0.0523 -3.02567,5.62695 -6.7237,12.38812 l -6.72372,12.29304 -6.41096,-3.86554 c -9.5926,-5.78394 -17.86131,-10.3167 -27.95561,-15.32478 -12.33763,-6.12105 -21.48403,-10.1785 -21.78153,-9.66251 -0.13031,0.22599 -0.35319,2.02675 -0.4953,4.00167 -1.08323,15.05209 -4.03715,35.624 -7.07831,49.29561 -5.19251,23.34291 -11.58375,37.19561 -24.79646,53.74514 -4.26336,5.34006 -11.72032,12.75924 -16.72351,16.63875 -8.95326,6.94245 -24.90477,16.91926 -35.71416,22.33726 l -2.26786,1.13673 z M 74.220331,305.70903 c 4.938511,-1.02987 9.740148,-4.42349 13.672783,-9.66343 9.743196,-12.98206 20.024486,-45.11228 28.341546,-88.57067 2.72341,-14.23039 5.68026,-31.73052 5.40735,-32.00343 -0.30562,-0.30561 -13.36678,0.8814 -19.71632,1.79184 -12.236153,1.7545 -25.234384,4.88948 -34.584819,8.34136 -10.350595,3.8211 -22.497193,10.58827 -30.238097,16.84641 -1.55915,1.2605 -4.371482,3.88453 -6.249619,5.83118 -10.523507,10.90738 -14.061638,21.54273 -12.091364,36.3457 2.051236,15.41125 9.787983,30.42189 23.389982,45.38063 10.562447,11.61601 22.837045,17.62552 32.068558,15.70041 z"
       id="path828"
       inkscape:connector-curvature="0"
       sodipodi:nodetypes="sccsssssscssscssssscscsscccccsssscscscccscccssccssccsscccsssscsscssss" />
  </g>
  <g
     style="display:inline"
     inkscape:label="Char"
     inkscape:groupmode="layer"
     id="g834">
    <path
       sodipodi:nodetypes="sccsssssscssscssssscscsscccccsssscscscccscccssccssccsscccsssscsscssss"
       inkscape:connector-curvature="0"
       id="path832"
       d="m 176.27155,312.28971 c -4.8449,-6.32624 -13.60873,-9.57061 -13.71393,-9.84475 -0.12886,-0.33581 6.71895,-3.79362 11.25481,-6.1464 15.29241,-7.93224 20.62224,-11.0294 26.57606,-15.44331 5.70568,-4.22994 17.44946,-15.91112 20.95351,-20.8418 9.65137,-13.58083 16.87831,-39.61679 20.61618,-74.27232 0.81213,-7.52967 1.90053,-19.96678 1.75967,-20.10764 -0.25172,-0.25172 -13.22527,-4.14217 -19.70585,-5.90931 -21.80811,-5.94666 -46.38475,-10.01522 -66.7128,-11.04403 l -5.10268,-0.25825 -2.56629,15.6358 c -8.86671,54.02261 -19.15284,91.96434 -30.57389,112.7757 -7.58237,13.81654 -15.5248,22.50514 -24.87916,27.21655 -11.825875,5.95619 -27.538963,6.73277 -41.331443,2.04269 -11.068746,-3.76386 -23.761631,-12.5485 -34.223262,-23.68563 -16.9863998,-18.08319 -26.9269239,-37.4278 -30.153245,-58.67927 -0.954108,-6.28463 -0.947348,-19.2327 0.01273,-24.37947 3.2948343,-17.6629 14.1287449,-33.16948 32.854817,-47.02509 24.40554,-18.0579 56.205078,-28.09952 98.353793,-31.05803 3.32619,-0.23347 6.08128,-0.45487 6.12242,-0.49201 0.43389,-0.39167 7.79613,-61.674884 10.24478,-85.277543 L 137.09692,25.479228 121.2122,25.213886 C 112.4756,25.067949 80.536964,24.834441 50.237448,24.694979 L -4.8525816,24.441413 V 11.258684 -1.9240456 H 81.137 167.12658 V 11.047736 c 0,12.471314 -0.0585,13.532213 -1.51539,27.497766 -2.72098,26.082281 -5.51387,50.621636 -8.13319,71.461258 -0.722,5.74431 -1.31273,10.52894 -1.31273,10.63251 0,0.10357 1.99855,0.30206 4.44122,0.4411 27.08815,1.54184 52.22456,5.85086 78.14658,13.3963 3.53408,1.02871 6.51064,1.7863 6.61458,1.68354 0.10395,-0.10276 0.18395,-30.70349 0.1778,-68.001615 l -0.21791,-70.0885465 14.90287,0.3100586 14.59279,-0.1033529 -0.23561,69.8311018 c -0.12959,38.407104 -0.2256,73.271684 -0.33972,74.950454 l -0.20746,3.05229 5.03492,1.99844 c 15.23066,6.04535 35.07012,15.8472 49.24827,24.3315 4.92606,2.94779 13.42797,8.24593 13.42797,8.36791 0,0.0523 -3.02567,5.62695 -6.7237,12.38812 l -6.72372,12.29304 -6.41096,-3.86554 c -9.5926,-5.78394 -17.86131,-10.3167 -27.95561,-15.32478 -12.33763,-6.12105 -21.48403,-10.1785 -21.78153,-9.66251 -0.13031,0.22599 -0.35319,2.02675 -0.4953,4.00167 -1.08323,15.05209 -4.03715,35.624 -7.07831,49.29561 -5.19251,23.34291 -11.58375,37.19561 -24.79646,53.74514 -4.26336,5.34006 -11.72032,12.75924 -16.72351,16.63875 -8.95326,6.94245 -24.90477,16.91926 -35.71416,22.33726 l -2.26786,1.13673 z M 74.220331,279.25053 c 4.938511,-1.02987 9.740148,-4.42349 13.672783,-9.66343 9.743196,-12.98206 20.024486,-45.11228 28.341546,-88.57067 2.72341,-14.23039 5.68026,-31.73052 5.40735,-32.00343 -0.30562,-0.30561 -13.36678,0.8814 -19.71632,1.79184 -12.236153,1.7545 -25.234384,4.88948 -34.584819,8.34136 -10.350595,3.8211 -22.497193,10.58827 -30.238097,16.84641 -1.55915,1.2605 -4.371482,3.88453 -6.249619,5.83118 -10.523507,10.90738 -14.061638,21.54273 -12.091364,36.3457 2.051236,15.41125 9.787983,30.42189 23.389982,45.38063 10.562447,11.61601 22.837045,17.62552 32.068558,15.70041 z"
       style="fill:#ffffff;fill-opacity:1;stroke:none;stroke-width:0.26499999;stroke-linecap:square;stroke-miterlimit:4;stroke-dasharray:none;stroke-dashoffset:10.01574802;stroke-opacity:1;paint-order:normal" />
  </g>
</svg>
